<svg xmlns="http://www.w3.org/2000/svg" class="Icon Icon--male" aria-hidden="true" style="width: 14px; height: 16px;" viewBox="0 0 14 14" width="14" height="16"><title /><g><path fill-rule="evenodd" d="M 3.025 10.64 c -1.367 -1.366 -1.367 -3.582 0 -4.95 c 1.367 -1.366 3.583 -1.366 4.95 0 c 1.367 1.368 1.367 3.584 0 4.95 c -1.367 1.368 -3.583 1.368 -4.95 0 Z m 10.122 -9.368 c -0.002 -0.414 -0.34 -0.75 -0.753 -0.753 L 8.322 0 c -0.413 -0.002 -0.746 0.33 -0.744 0.744 c 0.002 0.413 0.338 0.75 0.75 0.752 l 2.128 0.313 c -0.95 0.953 -1.832 1.828 -1.832 1.828 c -2.14 -1.482 -5.104 -1.27 -7.013 0.64 c -2.147 2.147 -2.147 5.63 0 7.777 c 2.15 2.148 5.63 2.148 7.78 0 c 1.908 -1.91 2.12 -4.873 0.636 -7.016 l 1.842 -1.82 l 0.303 2.116 c 0.003 0.414 0.34 0.75 0.753 0.753 c 0.413 0.002 0.746 -0.332 0.744 -0.745 l -0.52 -4.073 Z" /></g></svg>